<?xml version="1.0" encoding="utf-8"?>
<!-- Generator: Adobe Illustrator 24.0.1, SVG Export Plug-In . SVG Version: 6.00 Build 0)  -->
<svg version="1.1" id="Layer_1" xmlns="http://www.w3.org/2000/svg" xmlns:xlink="http://www.w3.org/1999/xlink" x="0px" y="0px"
	 viewBox="0 0 1000 300" style="enable-background:new 0 0 1000 300;" xml:space="preserve">
<style type="text/css">
	.st0{fill:url(#SVGID_1_);}
	.st1{fill:url(#SVGID_2_);}
	.st2{fill:#18C472;}
	.st3{fill:url(#SVGID_3_);}
	.st4{fill:#1C2626;}
	.st5{fill:#626C68;}
</style>
<g>
	<g>
		<linearGradient id="SVGID_1_" gradientUnits="userSpaceOnUse" x1="132.1192" y1="146.1297" x2="172.6937" y2="43.6257">
			<stop  offset="0" style="stop-color:#12877C"/>
			<stop  offset="1" style="stop-color:#02A284"/>
		</linearGradient>
		<path class="st0" d="M166.04,28.34c-31.22,0-59.72,18.31-72.58,46.64l-0.4,0.88c-4.41,10.03-6.64,20.71-6.64,31.76
			c0,13.94,3.69,27.65,10.65,39.63c6.97,12.01,17.17,22.11,29.19,29.05c-4.84-7.23-7.75-15.86-7.99-25.17
			c-0.01-0.38-0.02-0.8-0.02-1.23c0-0.44,0-0.84,0.02-1.28c0.15-12.33,2.82-24.38,7.95-35.7l0.42-0.91
			c7.76-16.59,20.77-30.75,36.72-39.94c13.65-7.87,29.25-12.02,45.13-12.02c8.01,0,15.84,1.03,23.42,3.05
			C217.27,41.64,192.65,28.34,166.04,28.34z"/>
		<linearGradient id="SVGID_2_" gradientUnits="userSpaceOnUse" x1="175.1635" y1="99.7106" x2="273.3967" y2="163.7757">
			<stop  offset="8.033988e-03" style="stop-color:#02A284"/>
			<stop  offset="1" style="stop-color:#18C472"/>
		</linearGradient>
		<path class="st1" d="M288.17,150.76c0-31.22-18.31-59.72-46.63-72.58l-0.88-0.4c-10.03-4.41-20.71-6.64-31.75-6.64
			c-13.94,0-27.65,3.68-39.63,10.65c-12.01,6.98-22.11,17.19-29.06,29.21c7.23-4.85,15.86-7.76,25.17-8c0.71-0.03,1.6-0.03,2.45,0
			c12.43,0.16,24.45,2.83,35.75,7.95l0.9,0.43c16.59,7.76,30.75,20.78,39.92,36.72c7.87,13.64,12.03,29.25,12.03,45.12
			c0,8.01-1.02,15.84-3.05,23.42C274.87,201.99,288.17,177.37,288.17,150.76z"/>
		<path class="st2" d="M99.87,236.9c14.67,21.47,39.28,34.76,65.9,34.76c31.01,0,59.32-18.07,72.32-46.08l0.26-0.58
			c4.66-10.27,7.03-21.24,7.03-32.61c0-13.95-3.69-27.65-10.65-39.63c-6.97-12.01-17.17-22.12-29.2-29.06
			c4.85,7.23,7.76,15.86,7.99,25.17c0.02,0.37,0.02,0.79,0.02,1.23c0,0.42,0,0.82-0.02,1.23c-0.16,12.03-2.67,23.7-7.48,34.68v0.02
			l-0.47,1.05c-7.72,16.99-20.91,31.49-37.14,40.84c-13.68,7.87-29.28,12.02-45.11,12.02C115.3,239.96,107.46,238.93,99.87,236.9z"
			/>
		<linearGradient id="SVGID_3_" gradientUnits="userSpaceOnUse" x1="136.3599" y1="204.5729" x2="53.0753" y2="127.6948">
			<stop  offset="8.033988e-03" style="stop-color:#086C6A"/>
			<stop  offset="1" style="stop-color:#12877C"/>
		</linearGradient>
		<path class="st3" d="M162.52,219.45c12-6.97,22.11-17.18,29.05-29.22c-7.23,4.85-15.87,7.76-25.18,8c-0.77,0.03-1.65,0.03-2.51,0
			c-12.36-0.15-24.41-2.83-35.71-7.96l-3.11-1.42v-0.09c-15.64-7.85-28.95-20.4-37.71-35.63c-7.87-13.64-12.02-29.24-12.02-45.12
			c0-8.01,1.03-15.85,3.05-23.43c-21.47,14.66-34.75,39.29-34.75,65.89c0,31.23,18.3,59.71,46.63,72.56l1.31,0.59
			c9.92,4.29,20.46,6.46,31.33,6.46C136.81,230.1,150.51,226.42,162.52,219.45z"/>
	</g>
	<path class="st4" d="M669.5,118.39c-32.08,0-58.18,25.07-58.18,55.89c0,30.82,26.1,55.89,58.18,55.89
		c32.08,0,58.19-25.07,58.19-55.89C727.69,143.47,701.58,118.39,669.5,118.39z M669.5,201.53c-15.24,0-27.6-12.2-27.6-27.24
		s12.36-27.24,27.6-27.24c15.24,0,27.6,12.2,27.6,27.24S684.75,201.53,669.5,201.53z"/>
	<path class="st4" d="M408.57,230.19c-32.09,0-58.2-25.08-58.2-55.9V92.47c0-6.42,4.08-12.12,10.16-14.2l20.94-7.14v53.58l3.08-1.35
		c7.52-3.3,15.61-4.98,24.03-4.98c32.07,0,58.17,25.08,58.17,55.9C466.73,205.11,440.64,230.19,408.57,230.19z M408.57,146.88
		c-13.06,0-24.18,8.75-27.05,21.29c-0.47,1.94-0.71,4-0.71,6.11c0,15.11,12.45,27.41,27.76,27.41c15.29,0,27.73-12.29,27.73-27.41
		C436.29,159.18,423.85,146.88,408.57,146.88z"/>
	<path class="st4" d="M483.82,230.11V118.59h31.09v19.88l3.96-5.43c0.68-0.93,1.44-1.83,2.26-2.69c6.7-7.15,16.48-11.43,27.12-11.95
		v32.87h-7.09c-11.3,0-21.01,6.98-24.74,17.78c-1,2.91-1.51,12.05-1.51,15.22v45.85H483.82z"/>
	<path class="st4" d="M565.35,230.1v-82.2c0-9,6.1-16.86,14.83-19.09l16.28-4.16V230.1H565.35z"/>
	<circle class="st4" cx="580.81" cy="89.74" r="18.61"/>
	<g>
		<path class="st5" d="M843.98,230.18h-24.99v-47.26h-43.51v47.26h-24.99V118.39h24.99v46.72h43.51v-46.72h24.99V230.18z"/>
		<path class="st5" d="M893.61,188.83v41.35h-24.85V118.39h34.84c7.74,0,14.34,0.83,19.81,2.49c5.46,1.66,9.92,3.98,13.38,6.95
			c3.45,2.97,5.97,6.47,7.53,10.51c1.57,4.04,2.35,8.44,2.35,13.2c0,3.63-0.47,7.06-1.39,10.28c-0.93,3.22-2.32,6.2-4.15,8.94
			c-1.84,2.74-4.09,5.18-6.76,7.33c-2.67,2.15-5.75,3.91-9.22,5.29c1.67,0.87,3.22,1.94,4.67,3.22c1.45,1.28,2.71,2.84,3.79,4.68
			l22.79,38.9h-22.49c-4.17,0-7.15-1.64-8.97-4.91l-17.79-32.45c-0.79-1.43-1.7-2.45-2.75-3.07c-1.06-0.61-2.54-0.92-4.45-0.92
			H893.61z M893.61,170.95h10c3.38,0,6.26-0.45,8.64-1.34c2.37-0.89,4.32-2.13,5.84-3.72c1.52-1.59,2.62-3.44,3.31-5.56
			c0.68-2.12,1.03-4.41,1.03-6.87c0-4.91-1.53-8.75-4.59-11.51c-3.06-2.76-7.8-4.14-14.22-4.14h-10V170.95z"/>
	</g>
</g>
</svg>
